<svg width="302" height="105" viewBox="0 0 302 105" fill="none" xmlns="http://www.w3.org/2000/svg">
<path d="M70.7743 3.27697C71.2743 1.16697 73.3943 -0.143031 75.5043 0.356969C77.6143 0.856969 78.9243 2.97697 78.4243 5.08697C78.4243 5.12697 78.4043 5.16697 78.3943 5.20697L75.9043 14.987C75.3743 17.107 73.2343 18.397 71.1243 17.867C69.0043 17.337 67.7143 15.197 68.2443 13.087L70.7843 3.27697H70.7743Z" fill="#FCDB35"/>
<path d="M5.04424 78.267C2.93424 78.767 0.81424 77.457 0.31424 75.347C-0.15576 73.367 0.97424 71.347 2.90424 70.707L12.6442 67.987C14.6842 67.257 16.9342 68.317 17.6642 70.367C18.3942 72.407 17.3342 74.657 15.2842 75.387C15.1242 75.447 14.9542 75.497 14.7842 75.527L5.04424 78.247L5.02424 78.267H5.04424Z" fill="#FCDB35"/>
<path d="M2.96426 48.587C0.854259 48.047 -0.415741 45.907 0.124259 43.807C0.664259 41.697 2.80426 40.427 4.90426 40.967L14.6943 43.437C16.8143 43.967 18.1043 46.117 17.5743 48.237C17.0443 50.357 14.8943 51.647 12.7743 51.117L2.97426 48.607L2.95426 48.587H2.96426Z" fill="#FCDB35"/>
<path d="M15.9143 22.087C14.2543 20.617 14.1043 18.087 15.5643 16.437C17.0343 14.777 19.5643 14.627 21.2143 16.087C21.3143 16.177 21.4143 16.267 21.5043 16.367L28.7943 23.497C30.4543 24.967 30.6043 27.497 29.1443 29.147C27.6843 30.797 25.1443 30.957 23.4943 29.497C23.3943 29.407 23.2943 29.317 23.2043 29.217L15.9143 22.087Z" fill="#FCDB35"/>
<path d="M41.0442 5.21698C40.3342 3.16698 41.4242 0.926976 43.4742 0.216976C45.5242 -0.493024 47.7642 0.596977 48.4742 2.64698C48.5242 2.78698 48.5642 2.92698 48.5942 3.06698L51.3142 12.807C51.9542 14.877 50.7842 17.077 48.7142 17.717C46.6442 18.357 44.4442 17.187 43.8042 15.117C43.7842 15.057 43.7642 14.997 43.7542 14.927L41.0442 5.19698V5.21698Z" fill="#FCDB35"/>
<path d="M55.7242 89.417C50.1742 89.417 45.5142 88.177 41.7242 85.697C37.9342 83.217 35.2742 79.847 33.7242 75.577L43.1642 70.057C45.3542 75.767 49.6442 78.617 56.0442 78.617C59.1342 78.617 61.4042 78.057 62.8442 76.937C64.2842 75.817 65.0042 74.407 65.0042 72.697C65.0042 70.727 64.1242 69.187 62.3642 68.097C60.6042 67.007 57.4542 65.817 52.9242 64.537C50.4142 63.787 48.2942 63.047 46.5642 62.297C44.8342 61.547 43.0942 60.547 41.3642 59.297C39.6342 58.047 38.3142 56.457 37.4042 54.537C36.4942 52.617 36.0442 50.377 36.0442 47.817C36.0442 42.747 37.8442 38.707 41.4442 35.697C45.0442 32.687 49.3742 31.177 54.4442 31.177C58.9742 31.177 62.9642 32.287 66.4042 34.497C69.8442 36.707 72.5242 39.787 74.4442 43.737L65.1642 49.097C62.9242 44.297 59.3542 41.897 54.4442 41.897C52.1542 41.897 50.3542 42.417 49.0442 43.457C47.7342 44.497 47.0842 45.847 47.0842 47.497C47.0842 49.257 47.8142 50.687 49.2842 51.777C50.7542 52.867 53.5642 54.057 57.7242 55.337C59.4342 55.867 60.7242 56.287 61.6042 56.577C62.4842 56.867 63.6842 57.327 65.2042 57.937C66.7242 58.547 67.8942 59.127 68.7242 59.657C69.5542 60.187 70.4942 60.907 71.5642 61.817C72.6342 62.727 73.4442 63.657 74.0042 64.617C74.5642 65.577 75.0442 66.737 75.4442 68.097C75.8442 69.457 76.0442 70.937 76.0442 72.537C76.0442 77.707 74.1642 81.817 70.4042 84.857C66.6442 87.897 61.7542 89.417 55.7242 89.417Z" fill="#231F20"/>
<path d="M109.164 48.297H119.484V88.297H109.164V83.817C106.654 87.547 102.684 89.417 97.2443 89.417C92.8743 89.417 89.2543 87.947 86.4043 85.017C83.5543 82.087 82.1243 78.027 82.1243 72.857V48.297H92.4443V71.577C92.4443 74.247 93.1643 76.287 94.6043 77.697C96.0443 79.107 97.9643 79.817 100.364 79.817C103.034 79.817 105.164 78.987 106.764 77.337C108.364 75.687 109.164 73.207 109.164 69.897V48.297Z" fill="#231F20"/>
<path d="M173.164 47.177C177.754 47.177 181.414 48.667 184.164 51.657C186.914 54.647 188.284 58.647 188.284 63.657V88.297H177.964V64.377C177.964 61.977 177.374 60.107 176.204 58.777C175.034 57.447 173.374 56.777 171.244 56.777C168.894 56.777 167.074 57.547 165.764 59.097C164.454 60.647 163.804 62.887 163.804 65.817V88.297H153.484V64.377C153.484 61.977 152.894 60.107 151.724 58.777C150.554 57.447 148.894 56.777 146.764 56.777C144.474 56.777 142.644 57.547 141.284 59.097C139.924 60.647 139.244 62.887 139.244 65.817V88.297H128.924V48.297H139.244V52.537C141.644 48.967 145.354 47.177 150.364 47.177C155.374 47.177 158.894 49.097 161.244 52.937C163.914 49.097 167.884 47.177 173.164 47.177Z" fill="#231F20"/>
<path d="M241.324 47.177C245.914 47.177 249.574 48.667 252.324 51.657C255.074 54.647 256.444 58.647 256.444 63.657V88.297H246.124V64.377C246.124 61.977 245.534 60.107 244.364 58.777C243.194 57.447 241.534 56.777 239.404 56.777C237.054 56.777 235.234 57.547 233.924 59.097C232.614 60.647 231.964 62.887 231.964 65.817V88.297H221.644V64.377C221.644 61.977 221.054 60.107 219.884 58.777C218.714 57.447 217.054 56.777 214.924 56.777C212.634 56.777 210.804 57.547 209.444 59.097C208.084 60.647 207.404 62.887 207.404 65.817V88.297H197.084V48.297H207.404V52.537C209.804 48.967 213.514 47.177 218.524 47.177C223.534 47.177 227.054 49.097 229.404 52.937C232.074 49.097 236.044 47.177 241.324 47.177Z" fill="#231F20"/>
<path d="M290.444 48.297H301.484L286.904 88.367C284.824 94.077 282.064 98.227 278.634 100.817C275.194 103.407 270.924 104.567 265.814 104.297V94.697C268.584 94.747 270.784 94.167 272.414 92.937C274.044 91.707 275.334 89.737 276.294 87.017L259.894 48.297H271.174L281.604 75.177L290.454 48.297H290.444Z" fill="#231F20"/>
</svg>
